<mxfile>
    <diagram id="zMZHBA6dxcgbxS2R1Aev" name="ページ1">
        <mxGraphModel dx="1640" dy="2061" grid="1" gridSize="10" guides="1" tooltips="1" connect="1" arrows="1" fold="1" page="1" pageScale="1" pageWidth="827" pageHeight="1169" background="#ffffff" math="0" shadow="0">
            <root>
                <mxCell id="0"/>
                <mxCell id="1" parent="0"/>
                <mxCell id="67" value="" style="shape=cube;whiteSpace=wrap;html=1;boundedLbl=1;backgroundOutline=1;darkOpacity=0.05;darkOpacity2=0.1;rounded=0;sketch=0;fillColor=none;" parent="1" vertex="1">
                    <mxGeometry x="309" y="980" width="1070" height="580" as="geometry"/>
                </mxCell>
                <mxCell id="51" value="" style="shape=cube;whiteSpace=wrap;html=1;boundedLbl=1;backgroundOutline=1;darkOpacity=0.05;darkOpacity2=0.1;rounded=0;sketch=0;fillColor=none;" parent="1" vertex="1">
                    <mxGeometry x="310" y="-130" width="1070" height="1080" as="geometry"/>
                </mxCell>
                <mxCell id="3" value="" style="verticalLabelPosition=bottom;verticalAlign=top;html=1;shadow=0;dashed=0;strokeWidth=1;shape=mxgraph.android.phone2;fontColor=#ffffff;fillColor=#333333;strokeColor=#333333;" parent="1" vertex="1">
                    <mxGeometry x="80" y="155" width="160" height="280" as="geometry"/>
                </mxCell>
                <UserObject label="&lt;img src=&quot;data:image/png;base64,iVBORw0KGgoAAAANSUhEUgAAAMgAAAD8CAMAAAAFbRsXAAAA8FBMVEUAAADEGUn///9rwEjKGkvHGUrMGkxtw0luxkpvyEu/GEfCGUiyF0K8GEZhrkGrFkD09PSOEjVpvUfv7+93Dyzj4+PPz86cFDqpFj87CBZWCyC3F0SiFTyqqqqhoaHJyclUlzlrDiiBEDAYAwlNCh1hDCRQkDZKhTIZGhgmBQ57EC5PT088PDyWlpY0XSNEei4uBhEgBAy9vb17e3uIiIgSIAwhOxYyMjIuUx9QCh4XFxe3t7ddpz9hYWEWKA/b29txcXE6aCcnRhoGCwQkJCQaLxIMFQhHfzBJSUlnZ2c1BxQwVyEiPhcqSxw/cCoQHAsZLJRuAAAdW0lEQVR4nL1dB1cbuxJe420GY1wAUwwYDDaEDqYETDUEQgL5///mbZM0kkZaafF9c9658Ut2JX3SNM2MtM6UKdUf1tbXFlvRr9t9x7k53zB+05zqa3dR04+L0c/W2dr67YL5q47pg+s3TkL76+/pD+fqsLVwNjxfXywwYoE2hueHG/WF86xl5/zwIOvjzLSJfCCts/X19dsDR01X31ycNU3bzuPtesQI9e8DOdf1QuhuY304PLTFUz8bDodr2jkidLNeHEg9off8TkB3tzY4hjZNO+fJgKyBLBze3Vj1Q7szpZbJQkj08ntNAQYFUn/Em7n4RX5d/lH09GiIo/6iaOD1iHWHP4FzGQZkYVfVSW10/Jz+HDSf8N4iJHmSGXFIS8Rxn01Qt5k2+PrUbX4phnFnAuRhY2NRmqxX8uNXrRI0B0mntUotwfRr9Jd/+OrqRi+ajze7VyLf9tNp6QeVpNGnUTkM6dLc/xOe/r24sSGaGA7I4j4+BZ9hrfv1PI5/NsvloNK9dJzjIKgMks4rx+lkwjf2WyoYixyG9KW/zUrMtJ/NsNyM/jxuhkE5SKC9Hg1GYR8f1TmHBQJRq5G/QRCGzW7U9iAoR1CCgTOKfoSjCFw3CEfxM8d8fw84Dt5mfNbi/x5Frf+KpyZqOry4juDE5DjPg1o5DMKBcljQWgIg6/xT11/9brd/fJ1M2nHceBBWus2kkwhKkPzRvLyMAdWicfypdJW9UDrku6jEU3BciRrqRyubthxmPYyalaSPeI2ci+enQb/bHzzxIglmiwGpC3CfKtFoo7EHtYiB34Ks+TJPQTNBFkQz+xSGuUgEHEH83leYtiA1nf3ZdJ7fas0wjEdTGY25FvYxIGfiwh2RpiK2EnsRKeKuWvRfHonkhAk4IgTh9XUlp+lyjCH7xbcf0QIC5FB8yDkK8/oA89dMOPwtfu+TNCBIPJ2qi5hdL1MubVr0MZKG+IAAyUTkq5ZR7ipgVIl0/ytVnFccjgfS+7gZye9Fs0D70dJko8t4DANC5qsWJFQARUwRiKMwIGvCeSzUJxnFak6SCWMsibA8q1mrlXXzWhRD1tFzpJgDYkKBQ0yVezcsh39H3+qFqOQDTNinfmcdHVuIBoYkiHVQpl1eZMaKtW258Iqn1MzaWkOBUDtiIX8qovrlkLRO9gOf34OQtk6EELUjhLWIZv8eVTKfkmguIoHjCcxSUCMjfceAMAfl1wQ6Kzczfzbz64kj2p3EgjC3+AwB4jDqT6A3qvQTxXKb/Z8/E1jscpl5w3cykAUA5FrsrllAOCvZ3msYt05Ur/1aB5kXBP4G2kUlkH+jbr/fFVurDQa1ii0WoloiKdnIftoqxCByud9G0mj6/f7oSQWEsNagglnDoPb0t5/vcnFEWDnSkXfZLNktSFCpPT33sdFEANNd9z4ChJgRhckNa9fRxs2KxbIleaEKcWDjvIXNwcW/voIPwk86SRKQxay3e5UTVBl9Opf9svmyEBW8QCyU+YJEDvtRvItTDSXdlDo3dQQIDcW9qpBEW8HIbX0ydieJvj/MdtBPhgsSL8Z9splWPBBmOOCWB251iSa4GKl6DMJ+pPqeu4ZQgtS1u7nRMq3UR+0pcnCemspBBMSw/55CgQAF3FfOXRDEW46LgbIb7mFuu31pgiMIRjH7f9bUI2jSMMcLDuQWdDpQdxomEa3xsQEU5kvEZOD5BEE3Di5djjRL3gTBoZYOyOfTr/H4Szd7YS0JZakXn1LlHgDJ9dyDoB8/P1bKePLQ6N4Z/800+wIKJLNa42YlrOiHGFT6STTjS80AKbEgW9RuzQhG7vwE0fAqWbs4axFh/2vA/kE5nZOcXqGQ3OufDFMYl0pFA4iE7PYVQIj/axR0yPjL0cpKAIJ2l7rnwm6ypxz3TfRhSJytDQUQuiMxUvhBNspfb+rOgy4D8qnWQ5UsfnxkpAspDrggfOx3gyIx0vhhM2XVC6VdMQIS1lI/+b6bG+JKHqdttpRAWGzr2sypCrup76ZS+xDIs+KRIDPTT1IYMwcHn+njgdRpRPKvWdgpKGf64wt9nhN2dL7JVNybCHmZxU+kLAkPBBj3e0MPr5KN5AJjDKh+HUT9hs1rq+Uok+VzxOgfDuSiPxhImytl281sK3gti2oAg+fSdj0gC/bPcDnKyRavf5QPhOito4rNHoqo9XFfWBQoIvIGOqxl4cI/NtFTGpHf1wGZIimra8OlJkO6JIvCvRbyWTne+6XcbrPdYrPGImYoEBowv7SKMQdBtocad8GoxJwZdBmCZrbHu8hzcwQcb6S1lhYI2V3rNiV4B2TQT1Rx875vTMz/DbvjAmzFlCQXLUWBTLFSh4FVrCEcZYL9mk1xWOOzSzEdZ+m14Iv/C9M+ajS/PBTHLefZf9Nun+1mq0kkItmWhSMZR7Ze7Mmu1apXKFshRQNIwQAoF7AKObIt6FcQlp8clF5HIfWV/tmJR5MuB7fHVQKpZ0DeBoORZWCQBmU/B4ryi4iOyLy+2uZ6av1B/9IcCJH3+6Z1bBHolHy6tNLwMQVhJZupQyMgJAo1NvNGeSTq7L5Af61xRA4NSekh1QhYUQ2V0j92TJx0pqi3EOnZGkbAdmlYVQ0GZIP1d1y2hWK2JpfWMCojVuyCFbqg9VqgYGQ8sIUSmgBRB85wGOHomb2MlrngFXSw9OXfwK5POauPUH69Azc3o0/wLl6uoygFfIA1W6Zbk7RTVW0dTzZNBrACbd+mFDCmLKT9+nXctfKyJQcLJ6uUTzB6+8qMrehi5QMhW5M/duYkVFj0by1JOawMUlV6oBquplyWeo9HukisNHeGOKK9m3GbYfONxHuZJWwtLCxA7aUGAmLal29Nw7Rb8IqOGiMzhzEIg+4f5n5mArJ4fhA7Ui/vQxr91VRicwWOl8c1gwhReG2MwyhdEjb7MHyROb0bsKr6biEXSF0oMf6VG06vmApIQv9ykYSf/Btp8cHQGTtX6xut1sLGcDf6vZYHRKiL//WWwwt092pMeZvQoMaVribrUY8Y5Z3V5t1ejdNiKn2R/8IjbeUrzNFeYe1eHGguacLGCZCwMqKNHqaifSfsDut3qQrIPa1wdpU1dH88ajbDSshKDDkYTSu2IvSKasS4ODcMy83agMjcHVmDw2RhWoQyvjkzOT8Cq4Hvnz+Pno67InMHlebxL2ycBnQtl1Q0u4Ovo+tPyFYkzruQVOUxr/Z3DGV/vGsCZEHunIt+Rtva0RHyjDFd9pvcIodyazSq+Hsc/1x0dpNt7Hh3/FJPRrhucjRpXWo3C34mZcG17pO9bIj0ORgxlg2akjEifmLkbtymQF5uz27Phs5uogHOI4tvcsZKQPKcbreazVH/7c/3QWT06/Jr0K0llUBB+Zj/N6qk1pzxVAokXaPH8ThWWQ8RVKPDYkB5RfR6cX//7wIL9mB0sv0zou0PU0AX/y5eL15BCvpmyPzdx9SUxECSv1xPgUwdOGuGp97qt+f2J3x6O43qdMn13eh/penVxuaedRNX/MGt/dTZoisSOSrJaajfztD4+N7GVX63kE7nl3zX80qMPNevbi3btbLPHxM5SMcdy8hdRC834zQwNHTODYEsKE6WqOijPeNCEBSLN7dj1xKsga5fpWU0RGvd7B6kVvLQFIhcN6+l5baPoMiw+LObdq2BEqD31E2JV2Q4HJ5f7d5kQm8GRHFA7WR7e3Nze/ukJ/5Dw1PCSMiv/rRCwhblLnVPiIzUx7upRosAGgCRD25+bLbnXD8S4ph8319tA6W0UnK1MJJVaUP0p8s/N7cajXa70ZjfWUY0wg2xI4epaaRa63ycLFHrxtnIByIeDd1urLquMOf+PFuOXBgJlOlt+sbmTDwnXkLRvJSq7c0TEUq2VX9IbQpTv874MJnqm3oeEOFoaG9+VgQRk0uV0ZIRjljsKfYt4ZUYzuqWgCVjr6vxHQQSGciY116if84B0uKV7tYMOk6vQ3BW9dLBgd/KXlr2MZxehxekVM+eJT5K5DSOEyAbSThiGNc76YG0uLZ2phXT7Z1mT6ya44j4kSBpo2957hJndNIs7t04crzqCwuZfYl/3CY7FC2QFjwietpBZi6dW6JPO4Z8RZBkJqU3jf+75zegTrhLhzS+4c9u3TrjGKMWCAw3/pxRzbbbyB6ZVyFVUraSP1UT4AKdkG3ZH8ZjmB6pPzrjRF50QO5AI/PKyXapgNjwVUJeO28KPPcHGERiDR+uYhcsYa36wzCClQZRNUCgOd9STrZXJc/8sGOs5GVif9RKm653TAlT1RODcPV+9/5C0emALIIGNDhWKRtbaCw6SiLvGvHyO2Ag6dAWzokyPTgk0UY1EKB4N9U4ZpghLgDEY4OcU77tttlIiLdSf7hdP+Ru6VACAYy1rZwtbxrYLfVQ1EBWTV6netpBTpvmAYEWZFbVhTcD7W+jAJAqeF+9ou4KfUgZjlcBAR5WW7Ug3HroFk4NpA0b0CwpY2DV/RgKIC2D8Xmzp45jOBAF+fzWpKrsismSakkUQEBUTrXiXlXA4XxYA5kVWlDqLp8xl+L2FQUQFmnYUWgst+pIpHpWRb607VUhAVoBKd9QAwFn2xUL4nbEMcSk1tNoGw25BZVldBkT4tlQHAhzThQS4iNjSNYkZ5eb34YCCdBveD4Uv+CFtYu72JwHxNGHUmDFkana2FRMHXUf97Eh40CYd4J72J4upDOv2rVwLfhzygjXCrqqHls/lLdQIExnrWC7t5ltrH8G/gca04ItuKu6qVhGdwwe/XfUuqNAWDQOsdaupHZl2lkqqbB4nj/d1s+E05tDFpWZd6RaCwcCRGRVas9vY11LtLfTnkljIwxBEiSpNn5KgTCZ2jIneNTjMro7KCaQ2pHa8+axfnHq7cw35qqrqzMRrc5Wq52tzZylYDQvLSjTWy/ImFEgrFRAVL5eyS5GmNLe3p4UqMqlnyURyixdSUzaMSAssSOoQnfJgCuMaW+l0ZmOw5X+bKexI0E9FQWFBc8waceAMM+Xj50prODHzvxWoxGHO42zORFtLpV8KkCR9HjVHyKWBs/YTNoxDxgDgistVOvubXYiZepm4U6v1F6Rn8FoXtbQ0ftLAuOucOzFYpPY9V0YELbJXWIN8XHnlHY6njAez5/dytfOK6sKP8Rf4ifrZAksCjOJmP7FgDDXl3qM3oxswTZnUVvhlpT+S0YNtb303DYfjf8B9DdV/NiVfRgQ1kwGxEOWY6Wq9HT9qjbBhlk7AKXET9kH7YcBMSyXBfYwARI5FJLS7bV1Xojnqj2Q/Di36N3PZ5LCgGBuYy4Qz1+VU2Xb0zmj8ZXsZRA0Ep2gXpoC+w6QH77XQSZXHT/NRaKMZEDyZgVN/NGOVKJrC2RD7Fykhsk+EOcuwzi3EJ9x4gxTB2QZENOOAMm7m9NoUqPBIG7Jnun+0ZvVFhdI53kwINpLax3zJIiHRCc6xhthGINESL7RWAIi3aknkFmyMyZXcpRtQngeGt0gdCXVlStPvSnIJpkzLRof8wUp8RFfhETrLhxxzSs4WbYJi4rhhT27mKqrr1vRHTpe1L4ZUU8Zz0Zpmn/bMhOECRmkK+V59jzxsBGQdE55X9g2gSLbIp5XXxQl5fx69FZWJP9q2zIkygfb9+xejsjlu1+ulkqc+7KL3ovywL20M+37nri5sM5JcUHqHeu0g8cN+yP2udxZOCjsesM6zKn3UmPh8eKmiAFqyIcNiKUaJgTNYrY54nxK5Oo2WFn2M/MJvSUOyKz1ODhTYqV8s/eBCqaVHu4c8CkPRSCwkpTNvA9nxDZpUBJ4Y8keCNR7W2yHtQq8n0UeCBQQkIuGM1Io2QnNc4GsL0zwgNe9GRbmIHeFZUCAowhZGfKWlS0kBD0me86Eeu8UhtM94DQMIRDAWLwPAtROEVktldj7qtIZPdEB8KofGssHBgRspcT6FsaNViVMCJBCK1JySVhFUN6gimCfAWFphJ7QDkuvnNqLugCkiIwwvSfuSkH+cYMAAbloUUUyJ8PeiIhACigLICRb4ttMTA4IEFatIWlYloMsUNcg+H0F7AhoQcoBAsO4mAFh9WWSPDKLVogxOPUrzalZEyogJZ/q4N8pEOb0yn42MySFRJUziPa+VjLcngoIcElbCRDmnMiDpUD2ZoqMwoUhseVCK0KcCyy9TFXqegyE6V5kylhNa7FRcF5nIUNCmkCAMHa5ioGw/BTiDNHdqu1WJKUZbktTSF9ogABVEtf90gtdeshYKW8UAiJEQrBcdy4RkcZmwae8dTvlsG/MYIHQ7wFxhahxEd4iwo55SEyn/p5yWAoXEydqEAtUlUUrIoQLi/CWn72LGWSmt66mHCYimIKlLsqJ/RDkGFsRjUG8RlR5M5+25VDH9wMdC1E7vQJ2xJcSivbGnU4GytusxnXReSQ/UVFkT9o7v0j4FjuYkNMIManoalLf2Flz6JYK9QrZ2uH1TjoSRb1QK3RVTzFNwXzadYcqLUwtgEk1SO4o32VkLWrMx5XLYuBcgapYTKUAd2bPlitkCYnph10zYADYLoABYdeboavugeCDpfurSgvYNQNmA5toBgScoELNCGBzyxD0jKJuwIq5IHtq7bUDwnKoD7BccARIJSwhG0cFFjhj+pclKsGKYPseH47Axi5jlbD2S8snFjAglPPuHFqvgahfviHMqVSNgI+1CmSUFY7J5ypTELXF7MgjsyMrCBB+Xo0jW55YKi6QYV7Y5ZNvCEdMU0E8dGjSEDGdokkztO45uWXTNfHm+JcQlmETtu6wEIpsOsUs3okREHBaSUmbOQW1JWRZ5ZgtsDIbwPuVNbxkm00C8u6cSb1gbjWLtyotqyQkIGvRAvsRSW15cmVsfphOp6840tYXlVxEXUhCwnaIV3CHKClqzOvL4Qmx2iqm3unpKbZIK7Pqs1to+aS0JWEccwf37I4Y8fGx7rc1pe+e2+H4YW+n0SGNTncaO6Kxn59Gp8Vzq3h9sDDTQKutcVEUYekUee6e6h4Ez69CP3F5a4479x5Xb0qXV2xWfbGkHy0QS0nYl4EUZ4uLawlqQa4lyWi7ikxkNI2Qq1bmxLrN9CHp8oqPrSopU40rVb0ZTeE8z1vA6h4kkUZWfiIEttTWYLtd4ibb9VcbsP+dVeXtFdG6iWLUW5lvL81F1Glsass2+FwRsPtrCRBWaMb5c/rynNOdRjVmlngyZ9o/uP5P5rQawXOX7CvMU+LqkIFeq6fReJZAhEvi5pfBny5vb29L6zafa+w8TB+a0AnMb7LJG2ZpBVZqBtyUnMovNSEnJmRyzQ5vyI3TAUJ7tUBSbyxBwvxCTcWrjk4VRdYSkmqh8wLUSYLz/EhziMhpPdFjM6SecdTIW80vPUeIzjQ4UNBi6Wm2USQVWVhppQEOi3quvHIsRicfH2z50vtKXKAjD0GeHZzhWU7qnv1i0mhVpYGfyRRob35p1fX92TkyoN5cZEJh3dILV/kAKgY+Zn23VAyHbV1arn+5HRcup+vnThMtOt9pQ23/wBfVgCjE6aZ85Y0RKS/TUJGvP3J1wjlDHm4PSHkQAdLCHkpx9Uyl0q7gsZSn4n9I9gh5iFaX03ottDDz5MfStO/703ONnXxtWaBYRenORV3LxzoQVmTfEWSlgEgFdoM4fpEzUmrn3LpWrGhG1dqOdOgtJsmLwL49PSXdzsYXj3u+eASKpwLXoqiXBL+/RDqnDA5bASDi/WzSyKJ9k0YLFKsowI2JIl4kydQGCkQo++1haQb1+e+fxaqHXERx9ZRHyX3hgOAUCqTOP4TLrjun2KUUSqLz8X6CQ+3mCPN4gAMRDo4oWEV1fqpQ0Q3GWzo3R9gjDRVA4IW4mgysix0jKFarUhLi5Pr1KInXdqi+vseZEk0ECzsJXqzEoySWq+S6nVDbjOsKIFwxto7nkehZsRqmkhQ8y9kG+NACcAcvuGMXj+ApbUrck7ZF1rlSCoSzJHmSxgnorRIIPO+mr0CUZLSg0hKA5OYbOLVVVwKB32jPKaUUkUwESL5zADM2/JEeHgjIVufVhApyUqxgkQdiULgD4+pnGiBAb+UWt/K+6CRkxGC/D4Dc1DVAwFH2/CpdTt8U11pUfE32lwCIcBZcAMIcR4NCHhigKG5HiPtkVHADgCxqgbAohIH0wpARWvNiBMScBUqcazalBcL8LROmh8xV1Ncik4EklbEeqUTpD1SCfaKZW86AFDuVwRw3s8geqxAQT+uKQKjeOjHxAoH/aF9TlraQuVqG557Y9kU8CS4CYdEUsynas3xeIGpXDTmTlm+9T+UAYQrYyFaDJSl0LoNImWERK9vrSjfRSUBobtSsigccSyuyaSevG5YIMg9Fur9NAsKiQkZtg3KmAsadhJjFg0QqYtYz9zw7OMhnNEvQllhrYPqyKVuyw7visJGrEuhnLMxCucC8W9cn01oXw3pg3V01MhC2c8fqOuXBQDfcTgWz2+YNZ4BVOMrXZ8pAGG8ZMT1XY2ZYiJUSyyMaepxMZ+1Ko9ZfJ2I2UXDXa3GyDWxoDHdlLPtkdJ0I0FtGbgef5NDfcITjMIQPAqbybSL625yMAuxC9E95uzxP8KbrU7OYGEv0GF65A/JwJpeHCIWPZvk3Lshn5qaBHSn2sc2cexoNFl1KZO8or8qnY5rhys2NZN2DxVmGQICUGO2XHJH0xXGeuIZGogiu37b4iivbuptsYSUgznJHUx3UEVNfJkoLFMljF7epgIBoisFGQQYSf6YHu83Uc0sNOYNnAASY3bHNxcUwMJ8v8BiQSOVtdmbAB6A8z/WnO5tYTjUfCAw9neEjVl23Di4RUn+PQAskWZf5Rmc2vsp0ZrbTmFdlU3OBQBw4Y6mBwG/u5azJjBqIGeUBgSWnV4rxqj9JAD7iqr/pWl9pZ0I5Tjx3PxVi03OAcEneZU36BU1gWZHWIHoeDGgqP62g+/4I/O5TT+15+DmFBPmkO+PozsLmVd8j0APhv2Cl+tKQ/qiIGSmFxOMj5coPT+cAmXrk5m0LNXI5FT5GdKL6WgB3dZMWR87nn7g8r9NrSCXgnqYsxoIwvei503zbCgNiBET8ymZvk/vIoefPFivhlEgqaYoLy3njqZZzEyDINZqbjersjJd+c1J/TfHe8s5Wo71UjcjzZqrVTqOxua2oZjlpT6dXmqeF5bOiJ3PQyhlo7kfrWu9Yt8s/tz90FVynK1txLSKteS+lI4zcFHd1aUu+FM6JC8sbnbnV2dW5TmNHUoTI3tYWCPY52hxabqx62KftCNfEpf7SBdg6ulF8c8QSiN13Nrcbs9JJCkyS/SXjAtAh7u/aA7H48ukOdiJDhcXsm5t3Sq+kAJCpqTOTVVlRn7ZAKefO6Zge0e3gN4BEDDbM67RjvBp0VTy9OV3L01VFgET7Ru03gvesq2UTKBqh3zeHYQck+Vq9kordiKapxs5XuYWB6G41LlRkqtnNvORY8m8CmVpQXTRd6D4zObxH6NFE5X4HiPKrx0WukyypnOcbvYM4GSBTC5jTYvkJK7og6G7m3HY5igGJJAVTX8Uu/UOU1oGldHwDSPa1S56KXAyEnX7DvsnxnwGJ+Eu+BdysmgQScn+3kV81SSCReZSMim3Nlozj0cYETgoIAsXmS29IHOnczD2cPJCpqYdHQU7y7g1gxMerIo17WHw1vg8k2kCuw6pn59T0a+B8vMp510Ss/j9AIlrkVNgP9CiOSFxV+svhd3hqckCECMXHUu6mhB3FS5iqqKLiaCJAhJNmK6v6eylmuHjV1URwTAiIcOm85mC+55b470MpP5RrSRMCMtUSvOKfHST1Fn8/TLDljxPqf2JAQMVaRnubHY+FJZNPCM6Jd1fgnzYsRJMDgm26ktRbQnONH3JY7qaQe4jTBIFMPeR93Ucg682TjiYJxC4o+WIQPrSgyQKZaj2a4picdKQ0YSARf+V95Seh4fccK4QmDsQgkne1PknhyOg/ABJtIM80y/I4QVUF6D8BEtPGuRyj2L07/G9QTP2HQCKqL5ytH54/7r+/7z8O19c2Wv8BR1H6H+8Nz9nKxGTiAAAAAElFTkSuQmCC&quot; width=&quot;200&quot; height=&quot;252&quot;&gt;" id="5">
                    <mxCell style="rounded=1;whiteSpace=wrap;html=1;fillColor=none;" parent="1" vertex="1">
                        <mxGeometry x="430" y="160" width="240" height="280" as="geometry"/>
                    </mxCell>
                </UserObject>
                <mxCell id="9" value="" style="shape=process;whiteSpace=wrap;html=1;backgroundOutline=1;strokeColor=#666666;fontColor=#333333;fillColor=#333333;" parent="1" vertex="1">
                    <mxGeometry x="780" y="160" width="530" height="270" as="geometry"/>
                </mxCell>
                <mxCell id="13" value="&lt;font style=&quot;font-size: 22px&quot;&gt;WiFi&lt;br&gt;WebSocket&lt;/font&gt;" style="text;html=1;strokeColor=none;align=center;verticalAlign=middle;whiteSpace=wrap;rounded=0;sketch=0;fontColor=#5C5C5C;fillColor=#ffffff;" parent="1" vertex="1">
                    <mxGeometry x="270" y="195" width="120" height="70" as="geometry"/>
                </mxCell>
                <mxCell id="15" value="" style="html=1;shadow=0;dashed=0;align=center;verticalAlign=middle;shape=mxgraph.arrows2.arrow;dy=0.6;dx=40;notch=0;rounded=0;sketch=0;fontColor=#5C5C5C;fillColor=#CC00CC;strokeColor=none;" parent="1" vertex="1">
                    <mxGeometry x="679" y="265" width="100" height="70" as="geometry"/>
                </mxCell>
                <mxCell id="20" value="&lt;font style=&quot;font-size: 30px&quot;&gt;リビング&lt;/font&gt;" style="text;html=1;strokeColor=none;align=center;verticalAlign=middle;whiteSpace=wrap;rounded=0;sketch=0;fillColor=#1A1A1A;fontColor=#FFFFFF;" parent="1" vertex="1">
                    <mxGeometry x="328" y="-110" width="1050" height="70" as="geometry"/>
                </mxCell>
                <mxCell id="22" value="&lt;span style=&quot;font-size: 30px&quot;&gt;スマホ1&lt;/span&gt;" style="text;html=1;align=center;verticalAlign=middle;whiteSpace=wrap;rounded=0;sketch=0;" parent="1" vertex="1">
                    <mxGeometry x="80" y="85" width="160" height="70" as="geometry"/>
                </mxCell>
                <mxCell id="23" value="&lt;span style=&quot;font-size: 30px&quot;&gt;ウェブサーバ&lt;br&gt;メディアサーバ&lt;br&gt;ファイルサーバ&lt;br&gt;デバイスサーバ&lt;br&gt;&lt;/span&gt;" style="text;html=1;align=center;verticalAlign=middle;whiteSpace=wrap;rounded=0;sketch=0;" parent="1" vertex="1">
                    <mxGeometry x="430" y="-30" width="240" height="190" as="geometry"/>
                </mxCell>
                <mxCell id="24" value="&lt;span style=&quot;font-size: 30px&quot;&gt;モニター&lt;/span&gt;" style="text;html=1;align=center;verticalAlign=middle;whiteSpace=wrap;rounded=0;sketch=0;" parent="1" vertex="1">
                    <mxGeometry x="910" y="90" width="280" height="70" as="geometry"/>
                </mxCell>
                <UserObject label="&lt;img src=&quot;data:image/png;base64,iVBORw0KGgoAAAANSUhEUgAAAMgAAAD8CAMAAAAFbRsXAAAA8FBMVEUAAADEGUn///9rwEjKGkvHGUrMGkxtw0luxkpvyEu/GEfCGUiyF0K8GEZhrkGrFkD09PSOEjVpvUfv7+93Dyzj4+PPz86cFDqpFj87CBZWCyC3F0SiFTyqqqqhoaHJyclUlzlrDiiBEDAYAwlNCh1hDCRQkDZKhTIZGhgmBQ57EC5PT088PDyWlpY0XSNEei4uBhEgBAy9vb17e3uIiIgSIAwhOxYyMjIuUx9QCh4XFxe3t7ddpz9hYWEWKA/b29txcXE6aCcnRhoGCwQkJCQaLxIMFQhHfzBJSUlnZ2c1BxQwVyEiPhcqSxw/cCoQHAsZLJRuAAAdW0lEQVR4nL1dB1cbuxJe420GY1wAUwwYDDaEDqYETDUEQgL5///mbZM0kkZaafF9c9658Ut2JX3SNM2MtM6UKdUf1tbXFlvRr9t9x7k53zB+05zqa3dR04+L0c/W2dr67YL5q47pg+s3TkL76+/pD+fqsLVwNjxfXywwYoE2hueHG/WF86xl5/zwIOvjzLSJfCCts/X19dsDR01X31ycNU3bzuPtesQI9e8DOdf1QuhuY304PLTFUz8bDodr2jkidLNeHEg9off8TkB3tzY4hjZNO+fJgKyBLBze3Vj1Q7szpZbJQkj08ntNAQYFUn/Em7n4RX5d/lH09GiIo/6iaOD1iHWHP4FzGQZkYVfVSW10/Jz+HDSf8N4iJHmSGXFIS8Rxn01Qt5k2+PrUbX4phnFnAuRhY2NRmqxX8uNXrRI0B0mntUotwfRr9Jd/+OrqRi+ajze7VyLf9tNp6QeVpNGnUTkM6dLc/xOe/r24sSGaGA7I4j4+BZ9hrfv1PI5/NsvloNK9dJzjIKgMks4rx+lkwjf2WyoYixyG9KW/zUrMtJ/NsNyM/jxuhkE5SKC9Hg1GYR8f1TmHBQJRq5G/QRCGzW7U9iAoR1CCgTOKfoSjCFw3CEfxM8d8fw84Dt5mfNbi/x5Frf+KpyZqOry4juDE5DjPg1o5DMKBcljQWgIg6/xT11/9brd/fJ1M2nHceBBWus2kkwhKkPzRvLyMAdWicfypdJW9UDrku6jEU3BciRrqRyubthxmPYyalaSPeI2ci+enQb/bHzzxIglmiwGpC3CfKtFoo7EHtYiB34Ks+TJPQTNBFkQz+xSGuUgEHEH83leYtiA1nf3ZdJ7fas0wjEdTGY25FvYxIGfiwh2RpiK2EnsRKeKuWvRfHonkhAk4IgTh9XUlp+lyjCH7xbcf0QIC5FB8yDkK8/oA89dMOPwtfu+TNCBIPJ2qi5hdL1MubVr0MZKG+IAAyUTkq5ZR7ipgVIl0/ytVnFccjgfS+7gZye9Fs0D70dJko8t4DANC5qsWJFQARUwRiKMwIGvCeSzUJxnFak6SCWMsibA8q1mrlXXzWhRD1tFzpJgDYkKBQ0yVezcsh39H3+qFqOQDTNinfmcdHVuIBoYkiHVQpl1eZMaKtW258Iqn1MzaWkOBUDtiIX8qovrlkLRO9gOf34OQtk6EELUjhLWIZv8eVTKfkmguIoHjCcxSUCMjfceAMAfl1wQ6Kzczfzbz64kj2p3EgjC3+AwB4jDqT6A3qvQTxXKb/Z8/E1jscpl5w3cykAUA5FrsrllAOCvZ3msYt05Ur/1aB5kXBP4G2kUlkH+jbr/fFVurDQa1ii0WoloiKdnIftoqxCByud9G0mj6/f7oSQWEsNagglnDoPb0t5/vcnFEWDnSkXfZLNktSFCpPT33sdFEANNd9z4ChJgRhckNa9fRxs2KxbIleaEKcWDjvIXNwcW/voIPwk86SRKQxay3e5UTVBl9Opf9svmyEBW8QCyU+YJEDvtRvItTDSXdlDo3dQQIDcW9qpBEW8HIbX0ydieJvj/MdtBPhgsSL8Z9splWPBBmOOCWB251iSa4GKl6DMJ+pPqeu4ZQgtS1u7nRMq3UR+0pcnCemspBBMSw/55CgQAF3FfOXRDEW46LgbIb7mFuu31pgiMIRjH7f9bUI2jSMMcLDuQWdDpQdxomEa3xsQEU5kvEZOD5BEE3Di5djjRL3gTBoZYOyOfTr/H4Szd7YS0JZakXn1LlHgDJ9dyDoB8/P1bKePLQ6N4Z/800+wIKJLNa42YlrOiHGFT6STTjS80AKbEgW9RuzQhG7vwE0fAqWbs4axFh/2vA/kE5nZOcXqGQ3OufDFMYl0pFA4iE7PYVQIj/axR0yPjL0cpKAIJ2l7rnwm6ypxz3TfRhSJytDQUQuiMxUvhBNspfb+rOgy4D8qnWQ5UsfnxkpAspDrggfOx3gyIx0vhhM2XVC6VdMQIS1lI/+b6bG+JKHqdttpRAWGzr2sypCrup76ZS+xDIs+KRIDPTT1IYMwcHn+njgdRpRPKvWdgpKGf64wt9nhN2dL7JVNybCHmZxU+kLAkPBBj3e0MPr5KN5AJjDKh+HUT9hs1rq+Uok+VzxOgfDuSiPxhImytl281sK3gti2oAg+fSdj0gC/bPcDnKyRavf5QPhOito4rNHoqo9XFfWBQoIvIGOqxl4cI/NtFTGpHf1wGZIimra8OlJkO6JIvCvRbyWTne+6XcbrPdYrPGImYoEBowv7SKMQdBtocad8GoxJwZdBmCZrbHu8hzcwQcb6S1lhYI2V3rNiV4B2TQT1Rx875vTMz/DbvjAmzFlCQXLUWBTLFSh4FVrCEcZYL9mk1xWOOzSzEdZ+m14Iv/C9M+ajS/PBTHLefZf9Nun+1mq0kkItmWhSMZR7Ze7Mmu1apXKFshRQNIwQAoF7AKObIt6FcQlp8clF5HIfWV/tmJR5MuB7fHVQKpZ0DeBoORZWCQBmU/B4ryi4iOyLy+2uZ6av1B/9IcCJH3+6Z1bBHolHy6tNLwMQVhJZupQyMgJAo1NvNGeSTq7L5Af61xRA4NSekh1QhYUQ2V0j92TJx0pqi3EOnZGkbAdmlYVQ0GZIP1d1y2hWK2JpfWMCojVuyCFbqg9VqgYGQ8sIUSmgBRB85wGOHomb2MlrngFXSw9OXfwK5POauPUH69Azc3o0/wLl6uoygFfIA1W6Zbk7RTVW0dTzZNBrACbd+mFDCmLKT9+nXctfKyJQcLJ6uUTzB6+8qMrehi5QMhW5M/duYkVFj0by1JOawMUlV6oBquplyWeo9HukisNHeGOKK9m3GbYfONxHuZJWwtLCxA7aUGAmLal29Nw7Rb8IqOGiMzhzEIg+4f5n5mArJ4fhA7Ui/vQxr91VRicwWOl8c1gwhReG2MwyhdEjb7MHyROb0bsKr6biEXSF0oMf6VG06vmApIQv9ykYSf/Btp8cHQGTtX6xut1sLGcDf6vZYHRKiL//WWwwt092pMeZvQoMaVribrUY8Y5Z3V5t1ejdNiKn2R/8IjbeUrzNFeYe1eHGguacLGCZCwMqKNHqaifSfsDut3qQrIPa1wdpU1dH88ajbDSshKDDkYTSu2IvSKasS4ODcMy83agMjcHVmDw2RhWoQyvjkzOT8Cq4Hvnz+Pno67InMHlebxL2ycBnQtl1Q0u4Ovo+tPyFYkzruQVOUxr/Z3DGV/vGsCZEHunIt+Rtva0RHyjDFd9pvcIodyazSq+Hsc/1x0dpNt7Hh3/FJPRrhucjRpXWo3C34mZcG17pO9bIj0ORgxlg2akjEifmLkbtymQF5uz27Phs5uogHOI4tvcsZKQPKcbreazVH/7c/3QWT06/Jr0K0llUBB+Zj/N6qk1pzxVAokXaPH8ThWWQ8RVKPDYkB5RfR6cX//7wIL9mB0sv0zou0PU0AX/y5eL15BCvpmyPzdx9SUxECSv1xPgUwdOGuGp97qt+f2J3x6O43qdMn13eh/penVxuaedRNX/MGt/dTZoisSOSrJaajfztD4+N7GVX63kE7nl3zX80qMPNevbi3btbLPHxM5SMcdy8hdRC834zQwNHTODYEsKE6WqOijPeNCEBSLN7dj1xKsga5fpWU0RGvd7B6kVvLQFIhcN6+l5baPoMiw+LObdq2BEqD31E2JV2Q4HJ5f7d5kQm8GRHFA7WR7e3Nze/ukJ/5Dw1PCSMiv/rRCwhblLnVPiIzUx7upRosAGgCRD25+bLbnXD8S4ph8319tA6W0UnK1MJJVaUP0p8s/N7cajXa70ZjfWUY0wg2xI4epaaRa63ycLFHrxtnIByIeDd1urLquMOf+PFuOXBgJlOlt+sbmTDwnXkLRvJSq7c0TEUq2VX9IbQpTv874MJnqm3oeEOFoaG9+VgQRk0uV0ZIRjljsKfYt4ZUYzuqWgCVjr6vxHQQSGciY116if84B0uKV7tYMOk6vQ3BW9dLBgd/KXlr2MZxehxekVM+eJT5K5DSOEyAbSThiGNc76YG0uLZ2phXT7Z1mT6ya44j4kSBpo2957hJndNIs7t04crzqCwuZfYl/3CY7FC2QFjwietpBZi6dW6JPO4Z8RZBkJqU3jf+75zegTrhLhzS+4c9u3TrjGKMWCAw3/pxRzbbbyB6ZVyFVUraSP1UT4AKdkG3ZH8ZjmB6pPzrjRF50QO5AI/PKyXapgNjwVUJeO28KPPcHGERiDR+uYhcsYa36wzCClQZRNUCgOd9STrZXJc/8sGOs5GVif9RKm653TAlT1RODcPV+9/5C0emALIIGNDhWKRtbaCw6SiLvGvHyO2Ag6dAWzokyPTgk0UY1EKB4N9U4ZpghLgDEY4OcU77tttlIiLdSf7hdP+Ru6VACAYy1rZwtbxrYLfVQ1EBWTV6netpBTpvmAYEWZFbVhTcD7W+jAJAqeF+9ou4KfUgZjlcBAR5WW7Ug3HroFk4NpA0b0CwpY2DV/RgKIC2D8Xmzp45jOBAF+fzWpKrsismSakkUQEBUTrXiXlXA4XxYA5kVWlDqLp8xl+L2FQUQFmnYUWgst+pIpHpWRb607VUhAVoBKd9QAwFn2xUL4nbEMcSk1tNoGw25BZVldBkT4tlQHAhzThQS4iNjSNYkZ5eb34YCCdBveD4Uv+CFtYu72JwHxNGHUmDFkana2FRMHXUf97Eh40CYd4J72J4upDOv2rVwLfhzygjXCrqqHls/lLdQIExnrWC7t5ltrH8G/gca04ItuKu6qVhGdwwe/XfUuqNAWDQOsdaupHZl2lkqqbB4nj/d1s+E05tDFpWZd6RaCwcCRGRVas9vY11LtLfTnkljIwxBEiSpNn5KgTCZ2jIneNTjMro7KCaQ2pHa8+axfnHq7cw35qqrqzMRrc5Wq52tzZylYDQvLSjTWy/ImFEgrFRAVL5eyS5GmNLe3p4UqMqlnyURyixdSUzaMSAssSOoQnfJgCuMaW+l0ZmOw5X+bKexI0E9FQWFBc8waceAMM+Xj50prODHzvxWoxGHO42zORFtLpV8KkCR9HjVHyKWBs/YTNoxDxgDgistVOvubXYiZepm4U6v1F6Rn8FoXtbQ0ftLAuOucOzFYpPY9V0YELbJXWIN8XHnlHY6njAez5/dytfOK6sKP8Rf4ifrZAksCjOJmP7FgDDXl3qM3oxswTZnUVvhlpT+S0YNtb303DYfjf8B9DdV/NiVfRgQ1kwGxEOWY6Wq9HT9qjbBhlk7AKXET9kH7YcBMSyXBfYwARI5FJLS7bV1Xojnqj2Q/Di36N3PZ5LCgGBuYy4Qz1+VU2Xb0zmj8ZXsZRA0Ep2gXpoC+w6QH77XQSZXHT/NRaKMZEDyZgVN/NGOVKJrC2RD7Fykhsk+EOcuwzi3EJ9x4gxTB2QZENOOAMm7m9NoUqPBIG7Jnun+0ZvVFhdI53kwINpLax3zJIiHRCc6xhthGINESL7RWAIi3aknkFmyMyZXcpRtQngeGt0gdCXVlStPvSnIJpkzLRof8wUp8RFfhETrLhxxzSs4WbYJi4rhhT27mKqrr1vRHTpe1L4ZUU8Zz0Zpmn/bMhOECRmkK+V59jzxsBGQdE55X9g2gSLbIp5XXxQl5fx69FZWJP9q2zIkygfb9+xejsjlu1+ulkqc+7KL3ovywL20M+37nri5sM5JcUHqHeu0g8cN+yP2udxZOCjsesM6zKn3UmPh8eKmiAFqyIcNiKUaJgTNYrY54nxK5Oo2WFn2M/MJvSUOyKz1ODhTYqV8s/eBCqaVHu4c8CkPRSCwkpTNvA9nxDZpUBJ4Y8keCNR7W2yHtQq8n0UeCBQQkIuGM1Io2QnNc4GsL0zwgNe9GRbmIHeFZUCAowhZGfKWlS0kBD0me86Eeu8UhtM94DQMIRDAWLwPAtROEVktldj7qtIZPdEB8KofGssHBgRspcT6FsaNViVMCJBCK1JySVhFUN6gimCfAWFphJ7QDkuvnNqLugCkiIwwvSfuSkH+cYMAAbloUUUyJ8PeiIhACigLICRb4ttMTA4IEFatIWlYloMsUNcg+H0F7AhoQcoBAsO4mAFh9WWSPDKLVogxOPUrzalZEyogJZ/q4N8pEOb0yn42MySFRJUziPa+VjLcngoIcElbCRDmnMiDpUD2ZoqMwoUhseVCK0KcCyy9TFXqegyE6V5kylhNa7FRcF5nIUNCmkCAMHa5ioGw/BTiDNHdqu1WJKUZbktTSF9ogABVEtf90gtdeshYKW8UAiJEQrBcdy4RkcZmwae8dTvlsG/MYIHQ7wFxhahxEd4iwo55SEyn/p5yWAoXEydqEAtUlUUrIoQLi/CWn72LGWSmt66mHCYimIKlLsqJ/RDkGFsRjUG8RlR5M5+25VDH9wMdC1E7vQJ2xJcSivbGnU4GytusxnXReSQ/UVFkT9o7v0j4FjuYkNMIManoalLf2Flz6JYK9QrZ2uH1TjoSRb1QK3RVTzFNwXzadYcqLUwtgEk1SO4o32VkLWrMx5XLYuBcgapYTKUAd2bPlitkCYnph10zYADYLoABYdeboavugeCDpfurSgvYNQNmA5toBgScoELNCGBzyxD0jKJuwIq5IHtq7bUDwnKoD7BccARIJSwhG0cFFjhj+pclKsGKYPseH47Axi5jlbD2S8snFjAglPPuHFqvgahfviHMqVSNgI+1CmSUFY7J5ypTELXF7MgjsyMrCBB+Xo0jW55YKi6QYV7Y5ZNvCEdMU0E8dGjSEDGdokkztO45uWXTNfHm+JcQlmETtu6wEIpsOsUs3okREHBaSUmbOQW1JWRZ5ZgtsDIbwPuVNbxkm00C8u6cSb1gbjWLtyotqyQkIGvRAvsRSW15cmVsfphOp6840tYXlVxEXUhCwnaIV3CHKClqzOvL4Qmx2iqm3unpKbZIK7Pqs1to+aS0JWEccwf37I4Y8fGx7rc1pe+e2+H4YW+n0SGNTncaO6Kxn59Gp8Vzq3h9sDDTQKutcVEUYekUee6e6h4Ez69CP3F5a4479x5Xb0qXV2xWfbGkHy0QS0nYl4EUZ4uLawlqQa4lyWi7ikxkNI2Qq1bmxLrN9CHp8oqPrSopU40rVb0ZTeE8z1vA6h4kkUZWfiIEttTWYLtd4ibb9VcbsP+dVeXtFdG6iWLUW5lvL81F1Glsass2+FwRsPtrCRBWaMb5c/rynNOdRjVmlngyZ9o/uP5P5rQawXOX7CvMU+LqkIFeq6fReJZAhEvi5pfBny5vb29L6zafa+w8TB+a0AnMb7LJG2ZpBVZqBtyUnMovNSEnJmRyzQ5vyI3TAUJ7tUBSbyxBwvxCTcWrjk4VRdYSkmqh8wLUSYLz/EhziMhpPdFjM6SecdTIW80vPUeIzjQ4UNBi6Wm2USQVWVhppQEOi3quvHIsRicfH2z50vtKXKAjD0GeHZzhWU7qnv1i0mhVpYGfyRRob35p1fX92TkyoN5cZEJh3dILV/kAKgY+Zn23VAyHbV1arn+5HRcup+vnThMtOt9pQ23/wBfVgCjE6aZ85Y0RKS/TUJGvP3J1wjlDHm4PSHkQAdLCHkpx9Uyl0q7gsZSn4n9I9gh5iFaX03ottDDz5MfStO/703ONnXxtWaBYRenORV3LxzoQVmTfEWSlgEgFdoM4fpEzUmrn3LpWrGhG1dqOdOgtJsmLwL49PSXdzsYXj3u+eASKpwLXoqiXBL+/RDqnDA5bASDi/WzSyKJ9k0YLFKsowI2JIl4kydQGCkQo++1haQb1+e+fxaqHXERx9ZRHyX3hgOAUCqTOP4TLrjun2KUUSqLz8X6CQ+3mCPN4gAMRDo4oWEV1fqpQ0Q3GWzo3R9gjDRVA4IW4mgysix0jKFarUhLi5Pr1KInXdqi+vseZEk0ECzsJXqzEoySWq+S6nVDbjOsKIFwxto7nkehZsRqmkhQ8y9kG+NACcAcvuGMXj+ApbUrck7ZF1rlSCoSzJHmSxgnorRIIPO+mr0CUZLSg0hKA5OYbOLVVVwKB32jPKaUUkUwESL5zADM2/JEeHgjIVufVhApyUqxgkQdiULgD4+pnGiBAb+UWt/K+6CRkxGC/D4Dc1DVAwFH2/CpdTt8U11pUfE32lwCIcBZcAMIcR4NCHhigKG5HiPtkVHADgCxqgbAohIH0wpARWvNiBMScBUqcazalBcL8LROmh8xV1Ncik4EklbEeqUTpD1SCfaKZW86AFDuVwRw3s8geqxAQT+uKQKjeOjHxAoH/aF9TlraQuVqG557Y9kU8CS4CYdEUsynas3xeIGpXDTmTlm+9T+UAYQrYyFaDJSl0LoNImWERK9vrSjfRSUBobtSsigccSyuyaSevG5YIMg9Fur9NAsKiQkZtg3KmAsadhJjFg0QqYtYz9zw7OMhnNEvQllhrYPqyKVuyw7visJGrEuhnLMxCucC8W9cn01oXw3pg3V01MhC2c8fqOuXBQDfcTgWz2+YNZ4BVOMrXZ8pAGG8ZMT1XY2ZYiJUSyyMaepxMZ+1Ko9ZfJ2I2UXDXa3GyDWxoDHdlLPtkdJ0I0FtGbgef5NDfcITjMIQPAqbybSL625yMAuxC9E95uzxP8KbrU7OYGEv0GF65A/JwJpeHCIWPZvk3Lshn5qaBHSn2sc2cexoNFl1KZO8or8qnY5rhys2NZN2DxVmGQICUGO2XHJH0xXGeuIZGogiu37b4iivbuptsYSUgznJHUx3UEVNfJkoLFMljF7epgIBoisFGQQYSf6YHu83Uc0sNOYNnAASY3bHNxcUwMJ8v8BiQSOVtdmbAB6A8z/WnO5tYTjUfCAw9neEjVl23Di4RUn+PQAskWZf5Rmc2vsp0ZrbTmFdlU3OBQBw4Y6mBwG/u5azJjBqIGeUBgSWnV4rxqj9JAD7iqr/pWl9pZ0I5Tjx3PxVi03OAcEneZU36BU1gWZHWIHoeDGgqP62g+/4I/O5TT+15+DmFBPmkO+PozsLmVd8j0APhv2Cl+tKQ/qiIGSmFxOMj5coPT+cAmXrk5m0LNXI5FT5GdKL6WgB3dZMWR87nn7g8r9NrSCXgnqYsxoIwvei503zbCgNiBET8ymZvk/vIoefPFivhlEgqaYoLy3njqZZzEyDINZqbjersjJd+c1J/TfHe8s5Wo71UjcjzZqrVTqOxua2oZjlpT6dXmqeF5bOiJ3PQyhlo7kfrWu9Yt8s/tz90FVynK1txLSKteS+lI4zcFHd1aUu+FM6JC8sbnbnV2dW5TmNHUoTI3tYWCPY52hxabqx62KftCNfEpf7SBdg6ulF8c8QSiN13Nrcbs9JJCkyS/SXjAtAh7u/aA7H48ukOdiJDhcXsm5t3Sq+kAJCpqTOTVVlRn7ZAKefO6Zge0e3gN4BEDDbM67RjvBp0VTy9OV3L01VFgET7Ru03gvesq2UTKBqh3zeHYQck+Vq9kordiKapxs5XuYWB6G41LlRkqtnNvORY8m8CmVpQXTRd6D4zObxH6NFE5X4HiPKrx0WukyypnOcbvYM4GSBTC5jTYvkJK7og6G7m3HY5igGJJAVTX8Uu/UOU1oGldHwDSPa1S56KXAyEnX7DvsnxnwGJ+Eu+BdysmgQScn+3kV81SSCReZSMim3Nlozj0cYETgoIAsXmS29IHOnczD2cPJCpqYdHQU7y7g1gxMerIo17WHw1vg8k2kCuw6pn59T0a+B8vMp510Ss/j9AIlrkVNgP9CiOSFxV+svhd3hqckCECMXHUu6mhB3FS5iqqKLiaCJAhJNmK6v6eylmuHjV1URwTAiIcOm85mC+55b470MpP5RrSRMCMtUSvOKfHST1Fn8/TLDljxPqf2JAQMVaRnubHY+FJZNPCM6Jd1fgnzYsRJMDgm26ktRbQnONH3JY7qaQe4jTBIFMPeR93Ucg682TjiYJxC4o+WIQPrSgyQKZaj2a4picdKQ0YSARf+V95Seh4fccK4QmDsQgkne1PknhyOg/ABJtIM80y/I4QVUF6D8BEtPGuRyj2L07/G9QTP2HQCKqL5ytH54/7r+/7z8O19c2Wv8BR1H6H+8Nz9nKxGTiAAAAAElFTkSuQmCC&quot; width=&quot;200&quot; height=&quot;252&quot;&gt;" id="25">
                    <mxCell style="rounded=1;whiteSpace=wrap;html=1;fillColor=none;" parent="1" vertex="1">
                        <mxGeometry x="760" y="570" width="240" height="280" as="geometry"/>
                    </mxCell>
                </UserObject>
                <mxCell id="26" value="&lt;span style=&quot;font-size: 30px&quot;&gt;IR送信サーバ&lt;br&gt;&lt;/span&gt;" style="text;html=1;align=center;verticalAlign=middle;whiteSpace=wrap;rounded=0;sketch=0;" parent="1" vertex="1">
                    <mxGeometry x="755" y="470" width="250" height="100" as="geometry"/>
                </mxCell>
                <mxCell id="29" value="" style="html=1;shadow=0;dashed=0;align=center;verticalAlign=middle;shape=mxgraph.arrows2.bendArrow;dy=15;dx=38;notch=0;arrowHead=55;rounded=1;sketch=0;fontColor=#FFFFFF;flipV=1;fillColor=#3399FF;strokeColor=none;" parent="1" vertex="1">
                    <mxGeometry x="560" y="460" width="180" height="300" as="geometry"/>
                </mxCell>
                <mxCell id="35" value="&lt;font style=&quot;font-size: 22px&quot;&gt;WiFi&lt;br&gt;GetRequest&lt;br&gt;&lt;/font&gt;" style="text;html=1;strokeColor=none;fillColor=none;align=center;verticalAlign=middle;whiteSpace=wrap;rounded=0;sketch=0;fontColor=#5C5C5C;" parent="1" vertex="1">
                    <mxGeometry x="600" y="615" width="120" height="100" as="geometry"/>
                </mxCell>
                <mxCell id="36" value="" style="html=1;shadow=0;dashed=0;align=center;verticalAlign=middle;shape=mxgraph.arrows2.arrow;dy=0.6;dx=40;notch=0;rounded=0;sketch=0;fillColor=#fad9d5;strokeColor=none;" parent="1" vertex="1">
                    <mxGeometry x="1020" y="615" width="100" height="70" as="geometry"/>
                </mxCell>
                <mxCell id="37" value="" style="html=1;shadow=0;dashed=0;align=center;verticalAlign=middle;shape=mxgraph.arrows2.arrow;dy=0.6;dx=40;notch=0;rounded=0;sketch=0;fillColor=#fad9d5;strokeColor=none;" parent="1" vertex="1">
                    <mxGeometry x="1020" y="780" width="100" height="70" as="geometry"/>
                </mxCell>
                <mxCell id="42" value="" style="ellipse;whiteSpace=wrap;html=1;aspect=fixed;rounded=0;sketch=0;strokeColor=#d6b656;fillColor=#fff2cc;" parent="1" vertex="1">
                    <mxGeometry x="1165" y="560" width="140" height="140" as="geometry"/>
                </mxCell>
                <mxCell id="43" value="" style="rounded=1;whiteSpace=wrap;html=1;sketch=0;" parent="1" vertex="1">
                    <mxGeometry x="1135" y="820" width="200" height="100" as="geometry"/>
                </mxCell>
                <mxCell id="44" value="&lt;span style=&quot;font-size: 30px&quot;&gt;ライト&lt;/span&gt;" style="text;html=1;align=center;verticalAlign=middle;whiteSpace=wrap;rounded=0;sketch=0;" parent="1" vertex="1">
                    <mxGeometry x="1120" y="490" width="240" height="70" as="geometry"/>
                </mxCell>
                <mxCell id="46" value="&lt;span style=&quot;font-size: 30px&quot;&gt;エアコン&lt;/span&gt;" style="text;html=1;align=center;verticalAlign=middle;whiteSpace=wrap;rounded=0;sketch=0;" parent="1" vertex="1">
                    <mxGeometry x="1121" y="750" width="240" height="70" as="geometry"/>
                </mxCell>
                <mxCell id="47" value="&lt;font style=&quot;font-size: 22px&quot;&gt;IR&lt;/font&gt;" style="text;html=1;strokeColor=none;fillColor=none;align=center;verticalAlign=middle;whiteSpace=wrap;rounded=0;sketch=0;fontColor=#5C5C5C;" parent="1" vertex="1">
                    <mxGeometry x="1020" y="550" width="100" height="70" as="geometry"/>
                </mxCell>
                <mxCell id="48" value="&lt;span style=&quot;font-size: 22px&quot;&gt;IR&lt;/span&gt;" style="text;html=1;strokeColor=none;fillColor=none;align=center;verticalAlign=middle;whiteSpace=wrap;rounded=0;sketch=0;fontColor=#5C5C5C;" parent="1" vertex="1">
                    <mxGeometry x="1020" y="720" width="100" height="71" as="geometry"/>
                </mxCell>
                <mxCell id="50" value="" style="rounded=1;whiteSpace=wrap;html=1;sketch=0;" parent="1" vertex="1">
                    <mxGeometry x="1150" y="850" width="170" height="60" as="geometry"/>
                </mxCell>
                <mxCell id="53" value="&lt;font style=&quot;font-size: 22px&quot;&gt;HDMI&lt;/font&gt;" style="text;html=1;strokeColor=none;fillColor=none;align=center;verticalAlign=middle;whiteSpace=wrap;rounded=0;sketch=0;fontColor=#5C5C5C;" parent="1" vertex="1">
                    <mxGeometry x="679" y="200" width="100" height="70" as="geometry"/>
                </mxCell>
                <mxCell id="54" value="&lt;font style=&quot;font-size: 30px&quot;&gt;寝室&lt;/font&gt;" style="text;html=1;strokeColor=none;align=center;verticalAlign=middle;whiteSpace=wrap;rounded=0;sketch=0;fillColor=#1A1A1A;fontColor=#FFFFFF;" parent="1" vertex="1">
                    <mxGeometry x="328" y="1000" width="1050" height="70" as="geometry"/>
                </mxCell>
                <UserObject label="&lt;img src=&quot;data:image/png;base64,iVBORw0KGgoAAAANSUhEUgAAAMgAAAD8CAMAAAAFbRsXAAAA8FBMVEUAAADEGUn///9rwEjKGkvHGUrMGkxtw0luxkpvyEu/GEfCGUiyF0K8GEZhrkGrFkD09PSOEjVpvUfv7+93Dyzj4+PPz86cFDqpFj87CBZWCyC3F0SiFTyqqqqhoaHJyclUlzlrDiiBEDAYAwlNCh1hDCRQkDZKhTIZGhgmBQ57EC5PT088PDyWlpY0XSNEei4uBhEgBAy9vb17e3uIiIgSIAwhOxYyMjIuUx9QCh4XFxe3t7ddpz9hYWEWKA/b29txcXE6aCcnRhoGCwQkJCQaLxIMFQhHfzBJSUlnZ2c1BxQwVyEiPhcqSxw/cCoQHAsZLJRuAAAdW0lEQVR4nL1dB1cbuxJe420GY1wAUwwYDDaEDqYETDUEQgL5///mbZM0kkZaafF9c9658Ut2JX3SNM2MtM6UKdUf1tbXFlvRr9t9x7k53zB+05zqa3dR04+L0c/W2dr67YL5q47pg+s3TkL76+/pD+fqsLVwNjxfXywwYoE2hueHG/WF86xl5/zwIOvjzLSJfCCts/X19dsDR01X31ycNU3bzuPtesQI9e8DOdf1QuhuY304PLTFUz8bDodr2jkidLNeHEg9off8TkB3tzY4hjZNO+fJgKyBLBze3Vj1Q7szpZbJQkj08ntNAQYFUn/Em7n4RX5d/lH09GiIo/6iaOD1iHWHP4FzGQZkYVfVSW10/Jz+HDSf8N4iJHmSGXFIS8Rxn01Qt5k2+PrUbX4phnFnAuRhY2NRmqxX8uNXrRI0B0mntUotwfRr9Jd/+OrqRi+ajze7VyLf9tNp6QeVpNGnUTkM6dLc/xOe/r24sSGaGA7I4j4+BZ9hrfv1PI5/NsvloNK9dJzjIKgMks4rx+lkwjf2WyoYixyG9KW/zUrMtJ/NsNyM/jxuhkE5SKC9Hg1GYR8f1TmHBQJRq5G/QRCGzW7U9iAoR1CCgTOKfoSjCFw3CEfxM8d8fw84Dt5mfNbi/x5Frf+KpyZqOry4juDE5DjPg1o5DMKBcljQWgIg6/xT11/9brd/fJ1M2nHceBBWus2kkwhKkPzRvLyMAdWicfypdJW9UDrku6jEU3BciRrqRyubthxmPYyalaSPeI2ci+enQb/bHzzxIglmiwGpC3CfKtFoo7EHtYiB34Ks+TJPQTNBFkQz+xSGuUgEHEH83leYtiA1nf3ZdJ7fas0wjEdTGY25FvYxIGfiwh2RpiK2EnsRKeKuWvRfHonkhAk4IgTh9XUlp+lyjCH7xbcf0QIC5FB8yDkK8/oA89dMOPwtfu+TNCBIPJ2qi5hdL1MubVr0MZKG+IAAyUTkq5ZR7ipgVIl0/ytVnFccjgfS+7gZye9Fs0D70dJko8t4DANC5qsWJFQARUwRiKMwIGvCeSzUJxnFak6SCWMsibA8q1mrlXXzWhRD1tFzpJgDYkKBQ0yVezcsh39H3+qFqOQDTNinfmcdHVuIBoYkiHVQpl1eZMaKtW258Iqn1MzaWkOBUDtiIX8qovrlkLRO9gOf34OQtk6EELUjhLWIZv8eVTKfkmguIoHjCcxSUCMjfceAMAfl1wQ6Kzczfzbz64kj2p3EgjC3+AwB4jDqT6A3qvQTxXKb/Z8/E1jscpl5w3cykAUA5FrsrllAOCvZ3msYt05Ur/1aB5kXBP4G2kUlkH+jbr/fFVurDQa1ii0WoloiKdnIftoqxCByud9G0mj6/f7oSQWEsNagglnDoPb0t5/vcnFEWDnSkXfZLNktSFCpPT33sdFEANNd9z4ChJgRhckNa9fRxs2KxbIleaEKcWDjvIXNwcW/voIPwk86SRKQxay3e5UTVBl9Opf9svmyEBW8QCyU+YJEDvtRvItTDSXdlDo3dQQIDcW9qpBEW8HIbX0ydieJvj/MdtBPhgsSL8Z9splWPBBmOOCWB251iSa4GKl6DMJ+pPqeu4ZQgtS1u7nRMq3UR+0pcnCemspBBMSw/55CgQAF3FfOXRDEW46LgbIb7mFuu31pgiMIRjH7f9bUI2jSMMcLDuQWdDpQdxomEa3xsQEU5kvEZOD5BEE3Di5djjRL3gTBoZYOyOfTr/H4Szd7YS0JZakXn1LlHgDJ9dyDoB8/P1bKePLQ6N4Z/800+wIKJLNa42YlrOiHGFT6STTjS80AKbEgW9RuzQhG7vwE0fAqWbs4axFh/2vA/kE5nZOcXqGQ3OufDFMYl0pFA4iE7PYVQIj/axR0yPjL0cpKAIJ2l7rnwm6ypxz3TfRhSJytDQUQuiMxUvhBNspfb+rOgy4D8qnWQ5UsfnxkpAspDrggfOx3gyIx0vhhM2XVC6VdMQIS1lI/+b6bG+JKHqdttpRAWGzr2sypCrup76ZS+xDIs+KRIDPTT1IYMwcHn+njgdRpRPKvWdgpKGf64wt9nhN2dL7JVNybCHmZxU+kLAkPBBj3e0MPr5KN5AJjDKh+HUT9hs1rq+Uok+VzxOgfDuSiPxhImytl281sK3gti2oAg+fSdj0gC/bPcDnKyRavf5QPhOito4rNHoqo9XFfWBQoIvIGOqxl4cI/NtFTGpHf1wGZIimra8OlJkO6JIvCvRbyWTne+6XcbrPdYrPGImYoEBowv7SKMQdBtocad8GoxJwZdBmCZrbHu8hzcwQcb6S1lhYI2V3rNiV4B2TQT1Rx875vTMz/DbvjAmzFlCQXLUWBTLFSh4FVrCEcZYL9mk1xWOOzSzEdZ+m14Iv/C9M+ajS/PBTHLefZf9Nun+1mq0kkItmWhSMZR7Ze7Mmu1apXKFshRQNIwQAoF7AKObIt6FcQlp8clF5HIfWV/tmJR5MuB7fHVQKpZ0DeBoORZWCQBmU/B4ryi4iOyLy+2uZ6av1B/9IcCJH3+6Z1bBHolHy6tNLwMQVhJZupQyMgJAo1NvNGeSTq7L5Af61xRA4NSekh1QhYUQ2V0j92TJx0pqi3EOnZGkbAdmlYVQ0GZIP1d1y2hWK2JpfWMCojVuyCFbqg9VqgYGQ8sIUSmgBRB85wGOHomb2MlrngFXSw9OXfwK5POauPUH69Azc3o0/wLl6uoygFfIA1W6Zbk7RTVW0dTzZNBrACbd+mFDCmLKT9+nXctfKyJQcLJ6uUTzB6+8qMrehi5QMhW5M/duYkVFj0by1JOawMUlV6oBquplyWeo9HukisNHeGOKK9m3GbYfONxHuZJWwtLCxA7aUGAmLal29Nw7Rb8IqOGiMzhzEIg+4f5n5mArJ4fhA7Ui/vQxr91VRicwWOl8c1gwhReG2MwyhdEjb7MHyROb0bsKr6biEXSF0oMf6VG06vmApIQv9ykYSf/Btp8cHQGTtX6xut1sLGcDf6vZYHRKiL//WWwwt092pMeZvQoMaVribrUY8Y5Z3V5t1ejdNiKn2R/8IjbeUrzNFeYe1eHGguacLGCZCwMqKNHqaifSfsDut3qQrIPa1wdpU1dH88ajbDSshKDDkYTSu2IvSKasS4ODcMy83agMjcHVmDw2RhWoQyvjkzOT8Cq4Hvnz+Pno67InMHlebxL2ycBnQtl1Q0u4Ovo+tPyFYkzruQVOUxr/Z3DGV/vGsCZEHunIt+Rtva0RHyjDFd9pvcIodyazSq+Hsc/1x0dpNt7Hh3/FJPRrhucjRpXWo3C34mZcG17pO9bIj0ORgxlg2akjEifmLkbtymQF5uz27Phs5uogHOI4tvcsZKQPKcbreazVH/7c/3QWT06/Jr0K0llUBB+Zj/N6qk1pzxVAokXaPH8ThWWQ8RVKPDYkB5RfR6cX//7wIL9mB0sv0zou0PU0AX/y5eL15BCvpmyPzdx9SUxECSv1xPgUwdOGuGp97qt+f2J3x6O43qdMn13eh/penVxuaedRNX/MGt/dTZoisSOSrJaajfztD4+N7GVX63kE7nl3zX80qMPNevbi3btbLPHxM5SMcdy8hdRC834zQwNHTODYEsKE6WqOijPeNCEBSLN7dj1xKsga5fpWU0RGvd7B6kVvLQFIhcN6+l5baPoMiw+LObdq2BEqD31E2JV2Q4HJ5f7d5kQm8GRHFA7WR7e3Nze/ukJ/5Dw1PCSMiv/rRCwhblLnVPiIzUx7upRosAGgCRD25+bLbnXD8S4ph8319tA6W0UnK1MJJVaUP0p8s/N7cajXa70ZjfWUY0wg2xI4epaaRa63ycLFHrxtnIByIeDd1urLquMOf+PFuOXBgJlOlt+sbmTDwnXkLRvJSq7c0TEUq2VX9IbQpTv874MJnqm3oeEOFoaG9+VgQRk0uV0ZIRjljsKfYt4ZUYzuqWgCVjr6vxHQQSGciY116if84B0uKV7tYMOk6vQ3BW9dLBgd/KXlr2MZxehxekVM+eJT5K5DSOEyAbSThiGNc76YG0uLZ2phXT7Z1mT6ya44j4kSBpo2957hJndNIs7t04crzqCwuZfYl/3CY7FC2QFjwietpBZi6dW6JPO4Z8RZBkJqU3jf+75zegTrhLhzS+4c9u3TrjGKMWCAw3/pxRzbbbyB6ZVyFVUraSP1UT4AKdkG3ZH8ZjmB6pPzrjRF50QO5AI/PKyXapgNjwVUJeO28KPPcHGERiDR+uYhcsYa36wzCClQZRNUCgOd9STrZXJc/8sGOs5GVif9RKm653TAlT1RODcPV+9/5C0emALIIGNDhWKRtbaCw6SiLvGvHyO2Ag6dAWzokyPTgk0UY1EKB4N9U4ZpghLgDEY4OcU77tttlIiLdSf7hdP+Ru6VACAYy1rZwtbxrYLfVQ1EBWTV6netpBTpvmAYEWZFbVhTcD7W+jAJAqeF+9ou4KfUgZjlcBAR5WW7Ug3HroFk4NpA0b0CwpY2DV/RgKIC2D8Xmzp45jOBAF+fzWpKrsismSakkUQEBUTrXiXlXA4XxYA5kVWlDqLp8xl+L2FQUQFmnYUWgst+pIpHpWRb607VUhAVoBKd9QAwFn2xUL4nbEMcSk1tNoGw25BZVldBkT4tlQHAhzThQS4iNjSNYkZ5eb34YCCdBveD4Uv+CFtYu72JwHxNGHUmDFkana2FRMHXUf97Eh40CYd4J72J4upDOv2rVwLfhzygjXCrqqHls/lLdQIExnrWC7t5ltrH8G/gca04ItuKu6qVhGdwwe/XfUuqNAWDQOsdaupHZl2lkqqbB4nj/d1s+E05tDFpWZd6RaCwcCRGRVas9vY11LtLfTnkljIwxBEiSpNn5KgTCZ2jIneNTjMro7KCaQ2pHa8+axfnHq7cw35qqrqzMRrc5Wq52tzZylYDQvLSjTWy/ImFEgrFRAVL5eyS5GmNLe3p4UqMqlnyURyixdSUzaMSAssSOoQnfJgCuMaW+l0ZmOw5X+bKexI0E9FQWFBc8waceAMM+Xj50prODHzvxWoxGHO42zORFtLpV8KkCR9HjVHyKWBs/YTNoxDxgDgistVOvubXYiZepm4U6v1F6Rn8FoXtbQ0ftLAuOucOzFYpPY9V0YELbJXWIN8XHnlHY6njAez5/dytfOK6sKP8Rf4ifrZAksCjOJmP7FgDDXl3qM3oxswTZnUVvhlpT+S0YNtb303DYfjf8B9DdV/NiVfRgQ1kwGxEOWY6Wq9HT9qjbBhlk7AKXET9kH7YcBMSyXBfYwARI5FJLS7bV1Xojnqj2Q/Di36N3PZ5LCgGBuYy4Qz1+VU2Xb0zmj8ZXsZRA0Ep2gXpoC+w6QH77XQSZXHT/NRaKMZEDyZgVN/NGOVKJrC2RD7Fykhsk+EOcuwzi3EJ9x4gxTB2QZENOOAMm7m9NoUqPBIG7Jnun+0ZvVFhdI53kwINpLax3zJIiHRCc6xhthGINESL7RWAIi3aknkFmyMyZXcpRtQngeGt0gdCXVlStPvSnIJpkzLRof8wUp8RFfhETrLhxxzSs4WbYJi4rhhT27mKqrr1vRHTpe1L4ZUU8Zz0Zpmn/bMhOECRmkK+V59jzxsBGQdE55X9g2gSLbIp5XXxQl5fx69FZWJP9q2zIkygfb9+xejsjlu1+ulkqc+7KL3ovywL20M+37nri5sM5JcUHqHeu0g8cN+yP2udxZOCjsesM6zKn3UmPh8eKmiAFqyIcNiKUaJgTNYrY54nxK5Oo2WFn2M/MJvSUOyKz1ODhTYqV8s/eBCqaVHu4c8CkPRSCwkpTNvA9nxDZpUBJ4Y8keCNR7W2yHtQq8n0UeCBQQkIuGM1Io2QnNc4GsL0zwgNe9GRbmIHeFZUCAowhZGfKWlS0kBD0me86Eeu8UhtM94DQMIRDAWLwPAtROEVktldj7qtIZPdEB8KofGssHBgRspcT6FsaNViVMCJBCK1JySVhFUN6gimCfAWFphJ7QDkuvnNqLugCkiIwwvSfuSkH+cYMAAbloUUUyJ8PeiIhACigLICRb4ttMTA4IEFatIWlYloMsUNcg+H0F7AhoQcoBAsO4mAFh9WWSPDKLVogxOPUrzalZEyogJZ/q4N8pEOb0yn42MySFRJUziPa+VjLcngoIcElbCRDmnMiDpUD2ZoqMwoUhseVCK0KcCyy9TFXqegyE6V5kylhNa7FRcF5nIUNCmkCAMHa5ioGw/BTiDNHdqu1WJKUZbktTSF9ogABVEtf90gtdeshYKW8UAiJEQrBcdy4RkcZmwae8dTvlsG/MYIHQ7wFxhahxEd4iwo55SEyn/p5yWAoXEydqEAtUlUUrIoQLi/CWn72LGWSmt66mHCYimIKlLsqJ/RDkGFsRjUG8RlR5M5+25VDH9wMdC1E7vQJ2xJcSivbGnU4GytusxnXReSQ/UVFkT9o7v0j4FjuYkNMIManoalLf2Flz6JYK9QrZ2uH1TjoSRb1QK3RVTzFNwXzadYcqLUwtgEk1SO4o32VkLWrMx5XLYuBcgapYTKUAd2bPlitkCYnph10zYADYLoABYdeboavugeCDpfurSgvYNQNmA5toBgScoELNCGBzyxD0jKJuwIq5IHtq7bUDwnKoD7BccARIJSwhG0cFFjhj+pclKsGKYPseH47Axi5jlbD2S8snFjAglPPuHFqvgahfviHMqVSNgI+1CmSUFY7J5ypTELXF7MgjsyMrCBB+Xo0jW55YKi6QYV7Y5ZNvCEdMU0E8dGjSEDGdokkztO45uWXTNfHm+JcQlmETtu6wEIpsOsUs3okREHBaSUmbOQW1JWRZ5ZgtsDIbwPuVNbxkm00C8u6cSb1gbjWLtyotqyQkIGvRAvsRSW15cmVsfphOp6840tYXlVxEXUhCwnaIV3CHKClqzOvL4Qmx2iqm3unpKbZIK7Pqs1to+aS0JWEccwf37I4Y8fGx7rc1pe+e2+H4YW+n0SGNTncaO6Kxn59Gp8Vzq3h9sDDTQKutcVEUYekUee6e6h4Ez69CP3F5a4479x5Xb0qXV2xWfbGkHy0QS0nYl4EUZ4uLawlqQa4lyWi7ikxkNI2Qq1bmxLrN9CHp8oqPrSopU40rVb0ZTeE8z1vA6h4kkUZWfiIEttTWYLtd4ibb9VcbsP+dVeXtFdG6iWLUW5lvL81F1Glsass2+FwRsPtrCRBWaMb5c/rynNOdRjVmlngyZ9o/uP5P5rQawXOX7CvMU+LqkIFeq6fReJZAhEvi5pfBny5vb29L6zafa+w8TB+a0AnMb7LJG2ZpBVZqBtyUnMovNSEnJmRyzQ5vyI3TAUJ7tUBSbyxBwvxCTcWrjk4VRdYSkmqh8wLUSYLz/EhziMhpPdFjM6SecdTIW80vPUeIzjQ4UNBi6Wm2USQVWVhppQEOi3quvHIsRicfH2z50vtKXKAjD0GeHZzhWU7qnv1i0mhVpYGfyRRob35p1fX92TkyoN5cZEJh3dILV/kAKgY+Zn23VAyHbV1arn+5HRcup+vnThMtOt9pQ23/wBfVgCjE6aZ85Y0RKS/TUJGvP3J1wjlDHm4PSHkQAdLCHkpx9Uyl0q7gsZSn4n9I9gh5iFaX03ottDDz5MfStO/703ONnXxtWaBYRenORV3LxzoQVmTfEWSlgEgFdoM4fpEzUmrn3LpWrGhG1dqOdOgtJsmLwL49PSXdzsYXj3u+eASKpwLXoqiXBL+/RDqnDA5bASDi/WzSyKJ9k0YLFKsowI2JIl4kydQGCkQo++1haQb1+e+fxaqHXERx9ZRHyX3hgOAUCqTOP4TLrjun2KUUSqLz8X6CQ+3mCPN4gAMRDo4oWEV1fqpQ0Q3GWzo3R9gjDRVA4IW4mgysix0jKFarUhLi5Pr1KInXdqi+vseZEk0ECzsJXqzEoySWq+S6nVDbjOsKIFwxto7nkehZsRqmkhQ8y9kG+NACcAcvuGMXj+ApbUrck7ZF1rlSCoSzJHmSxgnorRIIPO+mr0CUZLSg0hKA5OYbOLVVVwKB32jPKaUUkUwESL5zADM2/JEeHgjIVufVhApyUqxgkQdiULgD4+pnGiBAb+UWt/K+6CRkxGC/D4Dc1DVAwFH2/CpdTt8U11pUfE32lwCIcBZcAMIcR4NCHhigKG5HiPtkVHADgCxqgbAohIH0wpARWvNiBMScBUqcazalBcL8LROmh8xV1Ncik4EklbEeqUTpD1SCfaKZW86AFDuVwRw3s8geqxAQT+uKQKjeOjHxAoH/aF9TlraQuVqG557Y9kU8CS4CYdEUsynas3xeIGpXDTmTlm+9T+UAYQrYyFaDJSl0LoNImWERK9vrSjfRSUBobtSsigccSyuyaSevG5YIMg9Fur9NAsKiQkZtg3KmAsadhJjFg0QqYtYz9zw7OMhnNEvQllhrYPqyKVuyw7visJGrEuhnLMxCucC8W9cn01oXw3pg3V01MhC2c8fqOuXBQDfcTgWz2+YNZ4BVOMrXZ8pAGG8ZMT1XY2ZYiJUSyyMaepxMZ+1Ko9ZfJ2I2UXDXa3GyDWxoDHdlLPtkdJ0I0FtGbgef5NDfcITjMIQPAqbybSL625yMAuxC9E95uzxP8KbrU7OYGEv0GF65A/JwJpeHCIWPZvk3Lshn5qaBHSn2sc2cexoNFl1KZO8or8qnY5rhys2NZN2DxVmGQICUGO2XHJH0xXGeuIZGogiu37b4iivbuptsYSUgznJHUx3UEVNfJkoLFMljF7epgIBoisFGQQYSf6YHu83Uc0sNOYNnAASY3bHNxcUwMJ8v8BiQSOVtdmbAB6A8z/WnO5tYTjUfCAw9neEjVl23Di4RUn+PQAskWZf5Rmc2vsp0ZrbTmFdlU3OBQBw4Y6mBwG/u5azJjBqIGeUBgSWnV4rxqj9JAD7iqr/pWl9pZ0I5Tjx3PxVi03OAcEneZU36BU1gWZHWIHoeDGgqP62g+/4I/O5TT+15+DmFBPmkO+PozsLmVd8j0APhv2Cl+tKQ/qiIGSmFxOMj5coPT+cAmXrk5m0LNXI5FT5GdKL6WgB3dZMWR87nn7g8r9NrSCXgnqYsxoIwvei503zbCgNiBET8ymZvk/vIoefPFivhlEgqaYoLy3njqZZzEyDINZqbjersjJd+c1J/TfHe8s5Wo71UjcjzZqrVTqOxua2oZjlpT6dXmqeF5bOiJ3PQyhlo7kfrWu9Yt8s/tz90FVynK1txLSKteS+lI4zcFHd1aUu+FM6JC8sbnbnV2dW5TmNHUoTI3tYWCPY52hxabqx62KftCNfEpf7SBdg6ulF8c8QSiN13Nrcbs9JJCkyS/SXjAtAh7u/aA7H48ukOdiJDhcXsm5t3Sq+kAJCpqTOTVVlRn7ZAKefO6Zge0e3gN4BEDDbM67RjvBp0VTy9OV3L01VFgET7Ru03gvesq2UTKBqh3zeHYQck+Vq9kordiKapxs5XuYWB6G41LlRkqtnNvORY8m8CmVpQXTRd6D4zObxH6NFE5X4HiPKrx0WukyypnOcbvYM4GSBTC5jTYvkJK7og6G7m3HY5igGJJAVTX8Uu/UOU1oGldHwDSPa1S56KXAyEnX7DvsnxnwGJ+Eu+BdysmgQScn+3kV81SSCReZSMim3Nlozj0cYETgoIAsXmS29IHOnczD2cPJCpqYdHQU7y7g1gxMerIo17WHw1vg8k2kCuw6pn59T0a+B8vMp510Ss/j9AIlrkVNgP9CiOSFxV+svhd3hqckCECMXHUu6mhB3FS5iqqKLiaCJAhJNmK6v6eylmuHjV1URwTAiIcOm85mC+55b470MpP5RrSRMCMtUSvOKfHST1Fn8/TLDljxPqf2JAQMVaRnubHY+FJZNPCM6Jd1fgnzYsRJMDgm26ktRbQnONH3JY7qaQe4jTBIFMPeR93Ucg682TjiYJxC4o+WIQPrSgyQKZaj2a4picdKQ0YSARf+V95Seh4fccK4QmDsQgkne1PknhyOg/ABJtIM80y/I4QVUF6D8BEtPGuRyj2L07/G9QTP2HQCKqL5ytH54/7r+/7z8O19c2Wv8BR1H6H+8Nz9nKxGTiAAAAAElFTkSuQmCC&quot; width=&quot;200&quot; height=&quot;252&quot;&gt;" id="55">
                    <mxCell style="rounded=1;whiteSpace=wrap;html=1;fillColor=none;" parent="1" vertex="1">
                        <mxGeometry x="769.5" y="1170" width="240" height="280" as="geometry"/>
                    </mxCell>
                </UserObject>
                <mxCell id="56" value="" style="html=1;shadow=0;dashed=0;align=center;verticalAlign=middle;shape=mxgraph.arrows2.arrow;dy=0.6;dx=40;notch=0;rounded=0;sketch=0;fillColor=#fad9d5;strokeColor=none;" parent="1" vertex="1">
                    <mxGeometry x="1029.5" y="1215" width="100" height="70" as="geometry"/>
                </mxCell>
                <mxCell id="57" value="" style="html=1;shadow=0;dashed=0;align=center;verticalAlign=middle;shape=mxgraph.arrows2.arrow;dy=0.6;dx=40;notch=0;rounded=0;sketch=0;fillColor=#fad9d5;strokeColor=none;" parent="1" vertex="1">
                    <mxGeometry x="1029.5" y="1380" width="100" height="70" as="geometry"/>
                </mxCell>
                <mxCell id="58" value="" style="ellipse;whiteSpace=wrap;html=1;aspect=fixed;rounded=0;sketch=0;strokeColor=#d6b656;fillColor=#fff2cc;" parent="1" vertex="1">
                    <mxGeometry x="1174.5" y="1160" width="140" height="140" as="geometry"/>
                </mxCell>
                <mxCell id="59" value="" style="rounded=1;whiteSpace=wrap;html=1;sketch=0;" parent="1" vertex="1">
                    <mxGeometry x="1144.5" y="1420" width="200" height="100" as="geometry"/>
                </mxCell>
                <mxCell id="60" value="&lt;span style=&quot;font-size: 30px&quot;&gt;ライト&lt;/span&gt;" style="text;html=1;align=center;verticalAlign=middle;whiteSpace=wrap;rounded=0;sketch=0;" parent="1" vertex="1">
                    <mxGeometry x="1129.5" y="1090" width="240" height="70" as="geometry"/>
                </mxCell>
                <mxCell id="61" value="&lt;span style=&quot;font-size: 30px&quot;&gt;エアコン&lt;/span&gt;" style="text;html=1;align=center;verticalAlign=middle;whiteSpace=wrap;rounded=0;sketch=0;" parent="1" vertex="1">
                    <mxGeometry x="1130.5" y="1350" width="240" height="70" as="geometry"/>
                </mxCell>
                <mxCell id="63" value="&lt;font style=&quot;font-size: 22px&quot;&gt;IR&lt;/font&gt;" style="text;html=1;strokeColor=none;fillColor=none;align=center;verticalAlign=middle;whiteSpace=wrap;rounded=0;sketch=0;fontColor=#5C5C5C;" parent="1" vertex="1">
                    <mxGeometry x="1035" y="1150" width="100" height="70" as="geometry"/>
                </mxCell>
                <mxCell id="64" value="&lt;span style=&quot;font-size: 22px&quot;&gt;IR&lt;/span&gt;" style="text;html=1;strokeColor=none;fillColor=none;align=center;verticalAlign=middle;whiteSpace=wrap;rounded=0;sketch=0;fontColor=#5C5C5C;" parent="1" vertex="1">
                    <mxGeometry x="1035" y="1320" width="100" height="71" as="geometry"/>
                </mxCell>
                <mxCell id="66" value="&lt;font style=&quot;font-size: 22px&quot;&gt;WiFi&lt;br&gt;GetRequest&lt;br&gt;&lt;/font&gt;" style="text;html=1;strokeColor=none;fillColor=none;align=center;verticalAlign=middle;whiteSpace=wrap;rounded=0;sketch=0;fontColor=#5C5C5C;" parent="1" vertex="1">
                    <mxGeometry x="559" y="1180" width="120" height="100" as="geometry"/>
                </mxCell>
                <mxCell id="68" value="" style="verticalLabelPosition=bottom;verticalAlign=top;html=1;shadow=0;dashed=0;strokeWidth=1;shape=mxgraph.android.phone2;fontColor=#ffffff;strokeColor=#333333;fillColor=#333333;" parent="1" vertex="1">
                    <mxGeometry x="80" y="545" width="160" height="280" as="geometry"/>
                </mxCell>
                <mxCell id="69" value="&lt;span style=&quot;font-size: 30px&quot;&gt;スマホ2&lt;/span&gt;" style="text;html=1;align=center;verticalAlign=middle;whiteSpace=wrap;rounded=0;sketch=0;" parent="1" vertex="1">
                    <mxGeometry x="80" y="475" width="160" height="70" as="geometry"/>
                </mxCell>
                <mxCell id="70" value="" style="html=1;shadow=0;dashed=0;align=center;verticalAlign=middle;shape=mxgraph.arrows2.bendArrow;dy=15;dx=38;notch=0;arrowHead=55;rounded=1;sketch=0;fontColor=#FFFFFF;flipV=1;fillColor=#3399FF;flipH=1;strokeColor=none;" parent="1" vertex="1">
                    <mxGeometry x="240" y="300" width="130" height="420" as="geometry"/>
                </mxCell>
                <mxCell id="12" value="" style="html=1;shadow=0;dashed=0;align=center;verticalAlign=middle;shape=mxgraph.arrows2.twoWayArrow;dy=0.6;dx=35;rounded=0;sketch=0;fontColor=#5C5C5C;fillColor=#3399FF;strokeColor=none;" parent="1" vertex="1">
                    <mxGeometry x="240" y="265" width="190" height="60" as="geometry"/>
                </mxCell>
                <mxCell id="65" value="" style="html=1;shadow=0;dashed=0;align=center;verticalAlign=middle;shape=mxgraph.arrows2.bendArrow;dy=15;dx=38;notch=0;arrowHead=55;rounded=1;sketch=0;fontColor=#FFFFFF;flipV=1;fillColor=#3399FF;strokeColor=none;" parent="1" vertex="1">
                    <mxGeometry x="490" y="460" width="260" height="860" as="geometry"/>
                </mxCell>
                <mxCell id="71" value="" style="rounded=1;whiteSpace=wrap;html=1;sketch=0;" parent="1" vertex="1">
                    <mxGeometry x="1159.5" y="1450" width="170" height="60" as="geometry"/>
                </mxCell>
                <mxCell id="72" value="&lt;span style=&quot;font-size: 30px&quot;&gt;IR送信サーバ&lt;br&gt;&lt;/span&gt;" style="text;html=1;align=center;verticalAlign=middle;whiteSpace=wrap;rounded=0;sketch=0;" vertex="1" parent="1">
                    <mxGeometry x="769.5" y="1069" width="250" height="100" as="geometry"/>
                </mxCell>
            </root>
        </mxGraphModel>
    </diagram>
</mxfile>
